<svg width="6" height="10" viewBox="0 0 6 10" fill="none" xmlns="http://www.w3.org/2000/svg">
<path d="M0.333252 5.265C0.333252 5.32318 0.350811 5.37898 0.382068 5.42012C0.413324 5.46127 0.455716 5.48438 0.499919 5.48438H3.43092L2.54859 6.64531C2.53309 6.66568 2.52079 6.68986 2.5124 6.71649C2.504 6.74311 2.49967 6.77165 2.49966 6.80047C2.49963 6.85869 2.51717 6.91453 2.54842 6.95573C2.57967 6.99692 2.62207 7.02008 2.6663 7.02013C2.71053 7.02017 2.75296 6.99708 2.78425 6.95595L3.95092 5.42032C3.98216 5.37918 3.99972 5.32339 3.99972 5.26522C3.99972 5.20705 3.98216 5.15126 3.95092 5.11012L2.78425 3.5745C2.75282 3.53454 2.71072 3.51243 2.66702 3.51293C2.62332 3.51343 2.58152 3.5365 2.55062 3.57717C2.51971 3.61784 2.50219 3.67287 2.50181 3.73039C2.50143 3.78791 2.51823 3.84332 2.54859 3.8847L3.43092 5.04563H0.499919C0.455716 5.04563 0.413324 5.06874 0.382068 5.10988C0.350811 5.15102 0.333252 5.20682 0.333252 5.265ZM4.83325 0.877502H1.16659C0.945572 0.877502 0.73361 0.993066 0.57733 1.19877C0.421049 1.40447 0.333252 1.68347 0.333252 1.97438V3.72938C0.333252 3.78756 0.350811 3.84336 0.382068 3.8845C0.413324 3.92564 0.455716 3.94875 0.499919 3.94875C0.544121 3.94875 0.586514 3.92564 0.61777 3.8845C0.649026 3.84336 0.666585 3.78756 0.666585 3.72938V1.97438C0.666585 1.79983 0.719264 1.63244 0.813032 1.50901C0.9068 1.38559 1.03398 1.31625 1.16659 1.31625H4.83325C4.96586 1.31625 5.09304 1.38559 5.18681 1.50901C5.28057 1.63244 5.33325 1.79983 5.33325 1.97438V8.55563C5.33325 8.73017 5.28057 8.89757 5.18681 9.02099C5.09304 9.14441 4.96586 9.21375 4.83325 9.21375H1.16659C1.03398 9.21375 0.9068 9.14441 0.813032 9.02099C0.719264 8.89757 0.666585 8.73017 0.666585 8.55563V6.80063C0.666585 6.74245 0.649026 6.68665 0.61777 6.64551C0.586514 6.60437 0.544121 6.58125 0.499919 6.58125C0.455716 6.58125 0.413324 6.60437 0.382068 6.64551C0.350811 6.68665 0.333252 6.74245 0.333252 6.80063V8.55563C0.333252 8.84654 0.421049 9.12553 0.57733 9.33124C0.73361 9.53694 0.945572 9.6525 1.16659 9.6525H4.83325C5.05427 9.6525 5.26623 9.53694 5.42251 9.33124C5.57879 9.12553 5.66659 8.84654 5.66659 8.55563V1.97438C5.66659 1.68347 5.57879 1.40447 5.42251 1.19877C5.26623 0.993066 5.05427 0.877502 4.83325 0.877502Z" fill="#EF4444"/>
</svg>
