<svg width="24" height="24" viewBox="0 0 24 24" fill="none" xmlns="http://www.w3.org/2000/svg">
<path d="M17.079 11.4998L11.64 6.0608C11.5427 5.96347 11.4917 5.8488 11.487 5.7168C11.483 5.5848 11.5364 5.4638 11.647 5.3538C11.7564 5.24713 11.874 5.1928 12 5.1908C12.1254 5.18947 12.2434 5.2438 12.354 5.3538L18.434 11.4338C18.5214 11.5218 18.5827 11.6111 18.618 11.7018C18.6534 11.7925 18.671 11.8918 18.671 11.9998C18.671 12.1078 18.6534 12.2071 18.618 12.2978C18.5827 12.3885 18.5214 12.4775 18.434 12.5648L12.354 18.6458C12.2607 18.7391 12.147 18.7891 12.013 18.7958C11.8784 18.8025 11.756 18.7525 11.646 18.6458C11.536 18.5358 11.481 18.4171 11.481 18.2898C11.481 18.1618 11.536 18.0428 11.646 17.9328L17.08 12.4998H5.50002C5.35735 12.4998 5.23835 12.4521 5.14302 12.3568C5.04769 12.2615 5.00002 12.1425 5.00002 11.9998C5.00002 11.8571 5.04769 11.7381 5.14302 11.6428C5.23835 11.5475 5.35735 11.4998 5.50002 11.4998H17.079Z" fill="#000"/>
</svg>
