<svg width="24" height="24" viewBox="0 0 24 24" fill="none" xmlns="http://www.w3.org/2000/svg">
<path d="M9.54995 15.8799L18.3519 7.07893C18.4493 6.9816 18.5639 6.9296 18.6959 6.92293C18.8279 6.91626 18.949 6.96826 19.059 7.07893C19.169 7.1896 19.2243 7.3086 19.225 7.43593C19.2256 7.56326 19.1706 7.68193 19.0599 7.79193L10.116 16.7419C9.95395 16.9039 9.76528 16.9849 9.54995 16.9849C9.33462 16.9849 9.14595 16.9039 8.98395 16.7419L4.93395 12.6919C4.83662 12.5946 4.78595 12.4789 4.78195 12.3449C4.77795 12.2109 4.83062 12.0889 4.93995 11.9789C5.04928 11.8689 5.16828 11.8139 5.29695 11.8139C5.42562 11.8139 5.54462 11.8689 5.65395 11.9789L9.54995 15.8799Z" fill="#000"/>
</svg>
