<svg width="24" height="24" viewBox="0 0 24 24" fill="none" xmlns="http://www.w3.org/2000/svg">
<path d="M6.92098 12.5002L12.36 17.9392C12.4573 18.0365 12.5083 18.1512 12.513 18.2832C12.517 18.4152 12.4636 18.5362 12.353 18.6462C12.2436 18.7529 12.126 18.8072 12 18.8092C11.8746 18.8105 11.7566 18.7562 11.646 18.6462L5.56598 12.5662C5.47865 12.4782 5.41731 12.3889 5.38198 12.2982C5.34665 12.2075 5.32898 12.1082 5.32898 12.0002C5.32898 11.8922 5.34665 11.7929 5.38198 11.7022C5.41731 11.6115 5.47865 11.5225 5.56598 11.4352L11.646 5.3542C11.7393 5.26087 11.853 5.21087 11.987 5.2042C12.1216 5.19753 12.244 5.24753 12.354 5.3542C12.464 5.4642 12.519 5.58287 12.519 5.7102C12.519 5.8382 12.464 5.9572 12.354 6.0672L6.91998 11.5002H18.5C18.6426 11.5002 18.7616 11.5479 18.857 11.6432C18.9523 11.7385 19 11.8575 19 12.0002C19 12.1429 18.9523 12.2619 18.857 12.3572C18.7616 12.4525 18.6426 12.5002 18.5 12.5002H6.92098Z" fill="#000"/>
</svg>
