<svg width="23" height="23" viewBox="0 0 23 23" fill="none" xmlns="http://www.w3.org/2000/svg">
<path d="M13.7527 21.0755H10.0912C6.63939 21.0755 4.91301 21.0755 3.84112 20.0027C2.76923 18.9299 2.76831 17.2045 2.76831 13.7526V11.9219C2.76831 8.47005 2.76831 6.74367 3.84112 5.67178C4.91393 4.59988 6.63939 4.59897 10.0912 4.59897H13.7527C17.2045 4.59897 18.9309 4.59897 20.0028 5.67178C21.0747 6.74458 21.0756 8.47005 21.0756 11.9219V13.7526C21.0756 17.2045 21.0756 18.9308 20.0028 20.0027C19.4051 20.6014 18.6041 20.8659 17.4141 20.9822M7.34513 4.59897V3.22592M16.4988 4.59897V3.22592M20.6179 9.17579H10.7778M2.76831 9.17579H6.31535" stroke="#3354F4" stroke-width="1.5" stroke-linecap="round"/>
<path d="M17.4141 16.4987C17.4141 16.7415 17.3176 16.9743 17.146 17.146C16.9743 17.3176 16.7415 17.4141 16.4987 17.4141C16.2559 17.4141 16.0231 17.3176 15.8514 17.146C15.6798 16.9743 15.5833 16.7415 15.5833 16.4987C15.5833 16.2559 15.6798 16.0231 15.8514 15.8514C16.0231 15.6798 16.2559 15.5833 16.4987 15.5833C16.7415 15.5833 16.9743 15.6798 17.146 15.8514C17.3176 16.0231 17.4141 16.2559 17.4141 16.4987ZM17.4141 12.8372C17.4141 13.08 17.3176 13.3128 17.146 13.4845C16.9743 13.6562 16.7415 13.7526 16.4987 13.7526C16.2559 13.7526 16.0231 13.6562 15.8514 13.4845C15.6798 13.3128 15.5833 13.08 15.5833 12.8372C15.5833 12.5945 15.6798 12.3616 15.8514 12.19C16.0231 12.0183 16.2559 11.9219 16.4987 11.9219C16.7415 11.9219 16.9743 12.0183 17.146 12.19C17.3176 12.3616 17.4141 12.5945 17.4141 12.8372ZM12.8372 16.4987C12.8372 16.7415 12.7408 16.9743 12.5691 17.146C12.3975 17.3176 12.1646 17.4141 11.9219 17.4141C11.6791 17.4141 11.4463 17.3176 11.2746 17.146C11.103 16.9743 11.0065 16.7415 11.0065 16.4987C11.0065 16.2559 11.103 16.0231 11.2746 15.8514C11.4463 15.6798 11.6791 15.5833 11.9219 15.5833C12.1646 15.5833 12.3975 15.6798 12.5691 15.8514C12.7408 16.0231 12.8372 16.2559 12.8372 16.4987ZM12.8372 12.8372C12.8372 13.08 12.7408 13.3128 12.5691 13.4845C12.3975 13.6562 12.1646 13.7526 11.9219 13.7526C11.6791 13.7526 11.4463 13.6562 11.2746 13.4845C11.103 13.3128 11.0065 13.08 11.0065 12.8372C11.0065 12.5945 11.103 12.3616 11.2746 12.19C11.4463 12.0183 11.6791 11.9219 11.9219 11.9219C12.1646 11.9219 12.3975 12.0183 12.5691 12.19C12.7408 12.3616 12.8372 12.5945 12.8372 12.8372ZM8.26042 16.4987C8.26042 16.7415 8.16398 16.9743 7.99231 17.146C7.82065 17.3176 7.58782 17.4141 7.34505 17.4141C7.10228 17.4141 6.86946 17.3176 6.69779 17.146C6.52613 16.9743 6.42969 16.7415 6.42969 16.4987C6.42969 16.2559 6.52613 16.0231 6.69779 15.8514C6.86946 15.6798 7.10228 15.5833 7.34505 15.5833C7.58782 15.5833 7.82065 15.6798 7.99231 15.8514C8.16398 16.0231 8.26042 16.2559 8.26042 16.4987ZM8.26042 12.8372C8.26042 13.08 8.16398 13.3128 7.99231 13.4845C7.82065 13.6562 7.58782 13.7526 7.34505 13.7526C7.10228 13.7526 6.86946 13.6562 6.69779 13.4845C6.52613 13.3128 6.42969 13.08 6.42969 12.8372C6.42969 12.5945 6.52613 12.3616 6.69779 12.19C6.86946 12.0183 7.10228 11.9219 7.34505 11.9219C7.58782 11.9219 7.82065 12.0183 7.99231 12.19C8.16398 12.3616 8.26042 12.5945 8.26042 12.8372Z" fill="#3354F4"/>
</svg>
